#!OML:ASF H:\ManfredObstacles\Project 1\Capture day 2\Session 1\male.ASF
:FULLY-SPECIFIED
:DEGREES
608
root 0.873461 15.9095 6.09767 -170.105 -5.14348 175.282
lowerback -2.12111 -2.63362 -9.67696
upperback 1.73546 -3.23577 0.540894
thorax 3.58149 -1.86872 5.80717
lowerneck -34.8584 -3.07634 -0.236224
upperneck 39.9812 -4.3589 3.9396
head 23.5924 -0.198653 1.28181
rclavicle 2.24751e-014 -1.12313e-014
rhumerus -43.1614 -26.5336 -67.0238
rradius 23.0884
rwrist 40.2068
rhand -2.22361 -6.15426
rfingers 7.12502
rthumb 23.4589 -34.7441
lclavicle 2.24751e-014 -1.12313e-014
lhumerus -24.2985 6.88467 87.6685
lradius 22.4635
lwrist -48.3281
lhand 4.53463 5.76966
lfingers 7.12502
lthumb 29.926 33.3703
rfemur -40.8198 2.03578 12.6996
rtibia 31.1014
rfoot -4.93652 -21.4808
rtoes -22.5674
lfemur 8.72886 -7.13094 -29.6853
ltibia 2.22639e-014
lfoot -0.42238 14.023
ltoes -4.2671
609
root 0.883901 15.9082 6.00965 -170.059 -5.37373 175.273
lowerback -2.13444 -2.70174 -9.70474
upperback 1.7502 -3.32412 0.557534
thorax 3.623 -1.91607 5.83269
lowerneck -34.9129 -3.11259 -0.317318
upperneck 39.9504 -4.39246 3.96824
head 23.5922 -0.224169 1.30007
rclavicle 2.7159e-014 3.3048e-014
rhumerus -43.5427 -26.9389 -66.5511
rradius 22.8486
rwrist 40.5095
rhand -2.18853 -6.18783
rfingers 7.12502
rthumb 23.4926 -34.7734
lclavicle 2.7159e-014 3.3048e-014
lhumerus -24.1385 6.66881 87.8086
lradius 22.594
lwrist -48.2116
lhand 4.50216 5.76433
lfingers 7.12502
lthumb 29.895 33.3706
rfemur -40.8546 2.41116 12.4193
rtibia 29.9797
rfoot -4.51611 -21.7274
rtoes -22.3421
lfemur 9.02239 -7.3167 -29.6148
ltibia 6.36111e-015
lfoot -0.314851 14.0029
ltoes -4.85532
610
root 0.895393 15.9063 5.91862 -170.009 -5.60674 175.264
lowerback -2.16618 -2.77019 -9.73343
upperback 1.76553 -3.41075 0.574548
thorax 3.67553 -1.96309 5.8582
lowerneck -34.968 -3.14068 -0.392764
upperneck 39.9209 -4.41479 3.99523
head 23.5926 -0.244865 1.31983
rclavicle -2.0686e-014 2.33572e-015
rhumerus -43.9307 -27.3754 -66.0513
rradius 22.6009
rwrist 40.8723
rhand -2.16758 -6.19156
rfingers 7.12502
rthumb 23.5127 -34.7745
lclavicle -2.0686e-014 2.33572e-015
lhumerus -23.9788 6.47506 87.9465
lradius 22.7185
lwrist -48.0683
lhand 4.45843 5.75408
lfingers 7.12502
lthumb 29.8533 33.3678
rfemur -40.8769 2.81266 12.1405
rtibia 28.9352
rfoot -4.18647 -22.0638
rtoes -22.1792
lfemur 9.32341 -7.50613 -29.537
ltibia -3.18055e-014
lfoot -0.192922 13.9634
ltoes -5.47696
611
root 0.907521 15.9037 5.82398 -169.967 -5.8421 175.252
lowerback -2.21548 -2.83812 -9.76331
upperback 1.78512 -3.49452 0.586224
thorax 3.74187 -2.00948 5.8778
lowerneck -35.0112 -3.15027 -0.420522
upperneck 39.8728 -4.42634 3.99023
head 23.5668 -0.260119 1.3142
rclavicle 4.77083e-015 1.5704e-014
rhumerus -44.3225 -27.8341 -65.5383
rradius 22.3492
rwrist 41.2572
rhand -2.15886 -6.17372
rfingers 7.12502
rthumb 23.521 -34.7556
lclavicle 4.77083e-015 1.5704e-014
lhumerus -23.8186 6.29414 88.0783
lradius 22.8376
lwrist -47.9027
lhand 4.44804 5.75355
lfingers 7.12502
lthumb 29.8434 33.3691
rfemur -40.8792 3.21917 11.8689
rtibia 27.9869
rfoot -4.02903 -22.4808
rtoes -22.0476
lfemur 9.64679 -7.69777 -29.4618
ltibia -3.18055e-015
lfoot -0.0644951 13.9059
ltoes -6.12156
612
root 0.920045 15.9003 5.72558 -169.927 -6.07213 175.219
lowerback -2.28921 -2.90311 -9.80389
upperback 1.81079 -3.57101 0.584221
thorax 3.82711 -2.05357 5.88786
lowerneck -35.046 -3.17528 -0.46043
upperneck 39.8532 -4.45293 3.99821
head 23.5657 -0.277464 1.3163
rclavicle -3.79803e-014 7.15625e-015
rhumerus -44.7229 -28.2995 -65.03
rradius 22.1163
rwrist 41.6413
rhand -2.12469 -6.15826
rfingers 7.12502
rthumb 23.5538 -34.736
lclavicle -3.79803e-014 7.15625e-015
lhumerus -23.6544 6.10804 88.2065
lradius 22.9459
lwrist -47.6997
lhand 4.43805 5.76193
lfingers 7.12502
lthumb 29.8338 33.3792
rfemur -40.8697 3.60995 11.6015
rtibia 27.1465
rfoot -4.0227 -22.9509
rtoes -21.9664
lfemur 9.98891 -7.88721 -29.4072
ltibia -6.36111e-015
lfoot 0.0609179 13.8332
ltoes -6.77027
613
root 0.93293 15.8963 5.62372 -169.888 -6.29305 175.171
lowerback -2.37685 -2.9671 -9.8532
upperback 1.83816 -3.64411 0.572813
thorax 3.92152 -2.09664 5.8921
lowerneck -35.0717 -3.1808 -0.458283
upperneck 39.8358 -4.46358 3.9846
head 23.5586 -0.284944 1.30333
rclavicle -3.21969e-014 -1.90833e-014
rhumerus -45.1139 -28.73 -64.5568
rradius 21.9084
rwrist 41.9677
rhand -2.0523 -6.17913
rfingers 7.12502
rthumb 23.6232 -34.7479
lclavicle -3.21969e-014 -1.90833e-014
lhumerus -23.4896 5.94969 88.3227
lradius 23.0427
lwrist -47.4997
lhand 4.43609 5.76594
lfingers 7.12502
lthumb 29.832 33.3835
rfemur -40.8534 3.97719 11.3514
rtibia 26.4185
rfoot -4.14096 -23.4486
rtoes -21.8899
lfemur 10.3466 -8.07026 -29.3682
ltibia -9.54166e-015
lfoot 0.195087 13.7387
ltoes -7.43872
614
root 0.946608 15.8919 5.51912 -169.845 -6.50607 175.124
lowerback -2.4733 -3.0322 -9.90724
upperback 1.86095 -3.71752 0.563758
thorax 4.01682 -2.13982 5.90086
lowerneck -35.1011 -3.18109 -0.456177
upperneck 39.8174 -4.46812 3.97501
head 23.552 -0.289803 1.29442
rclavicle -2.74385e-014 -4.72114e-015
rhumerus -45.4906 -29.1288 -64.1034
rradius 21.7118
rwrist 42.2865
rhand -1.95394 -6.22593
rfingers 7.12502
rthumb 23.7176 -34.7825
lclavicle -2.74385e-014 -4.72114e-015
lhumerus -23.3383 5.80872 88.4397
lradius 23.1387
lwrist -47.2786
lhand 4.42338 5.78468
lfingers 7.12502
lthumb 29.8198 33.4044
rfemur -40.8363 4.32555 11.1393
rtibia 25.8004
rfoot -4.37817 -23.9675
rtoes -21.7662
lfemur 10.7072 -8.24716 -29.3226
ltibia -6.36111e-015
lfoot 0.337293 13.6156
ltoes -8.12118
615
root 0.961023 15.8874 5.41186 -169.796 -6.71205 175.076
lowerback -2.58179 -3.1011 -9.96436
upperback 1.88038 -3.79443 0.556124
thorax 4.11654 -2.18487 5.9117
lowerneck -35.1313 -3.17641 -0.460761
upperneck 39.814 -4.46207 3.97749
head 23.5598 -0.288788 1.29811
rclavicle 3.55203e-014 4.94477e-015
rhumerus -45.8514 -29.5167 -63.6554
rradius 21.5118
rwrist 42.6215
rhand -1.84277 -6.2893
rfingers 7.12502
rthumb 23.8242 -34.832
lclavicle 3.55203e-014 4.94477e-015
lhumerus -23.2051 5.69784 88.5499
lradius 23.2477
lwrist -47.0658
lhand 4.42452 5.80504
lfingers 7.12502
lthumb 29.8209 33.4246
rfemur -40.8161 4.65059 10.9682
rtibia 25.2849
rfoot -4.6564 -24.4946
rtoes -21.6313
lfemur 11.0689 -8.41938 -29.2701
ltibia 2.8625e-014
lfoot 0.485603 13.4678
ltoes -8.80553
616
root 0.976535 15.8825 5.30208 -169.739 -6.91294 175.029
lowerback -2.69532 -3.17251 -10.0292
upperback 1.88983 -3.8739 0.552224
thorax 4.21007 -2.23068 5.9303
lowerneck -35.1135 -3.15668 -0.446611
upperneck 39.7696 -4.44408 3.9719
head 23.5124 -0.284869 1.29414
rclavicle -1.31384e-014 -1.28962e-014
rhumerus -46.2153 -29.9151 -63.1862
rradius 21.3049
rwrist 43.0059
rhand -1.73216 -6.34857
rfingers 7.12502
rthumb 23.9303 -34.8774
lclavicle -1.31384e-014 -1.28962e-014
lhumerus -23.0916 5.62467 88.6541
lradius 23.3522
lwrist -46.8832
lhand 4.43219 5.83155
lfingers 7.12502
lthumb 29.8282 33.4498
rfemur -40.7863 4.92881 10.856
rtibia 24.8601
rfoot -4.95316 -24.9951
rtoes -21.4903
lfemur 11.4295 -8.5891 -29.206
ltibia 2.8625e-014
lfoot 0.647756 13.2808
ltoes -9.50647
617
root 0.992805 15.8775 5.18956 -169.679 -7.11356 174.986
lowerback -2.80439 -3.24735 -10.0934
upperback 1.87971 -3.9588 0.552259
thorax 4.2818 -2.27727 5.95284
lowerneck -35.0919 -3.14009 -0.442256
upperneck 39.7459 -4.42259 3.97272
head 23.4828 -0.278274 1.29851
rclavicle -9.41742e-015 -1.72694e-014
rhumerus -46.6027 -30.309 -62.6848
rradius 21.0935
rwrist 43.4383
rhand -1.64149 -6.38199
rfingers 7.12502
rthumb 24.0172 -34.8994
lclavicle -9.41742e-015 -1.72694e-014
lhumerus -23.0171 5.5837 88.7492
lradius 23.4464
lwrist -46.7535
lhand 4.44266 5.84172
lfingers 7.12502
lthumb 29.8382 33.4582
rfemur -40.7263 5.13901 10.8187
rtibia 24.5196
rfoot -5.26176 -25.4588
rtoes -21.3386
lfemur 11.7944 -8.75987 -29.13
ltibia 2.54444e-014
lfoot 0.821652 13.055
ltoes -10.2144
